<svg width="103" height="47" viewBox="0 0 103 47" fill="none" xmlns="http://www.w3.org/2000/svg">
<path d="M5.97264 0H0.862778V35.7689H5.97264V0Z" fill="#323264"/>
<path d="M36.1114 25.293L36.3669 22.7381C36.3669 19.3145 35.2428 16.453 32.9433 14.1536C30.6439 11.8541 27.7824 10.73 24.3588 10.73C20.9352 10.73 17.9715 11.9563 15.5188 14.4091C13.0661 16.8618 11.8397 19.7744 11.8397 23.2491C11.8397 26.826 13.1172 29.8919 15.621 32.4468C18.1248 35.0017 21.1396 36.2792 24.6143 36.2792C25.9429 36.2792 27.1692 36.0748 28.3956 35.7171C29.6219 35.3083 30.6439 34.8995 31.3593 34.4907C32.1258 34.0308 32.8922 33.5199 33.5565 32.9578C34.2208 32.3957 34.6807 31.9869 34.8851 31.7314C35.0895 31.4759 35.2428 31.3226 35.345 31.1693L32.0236 27.8479L31.2571 28.8188C30.7461 29.432 29.8774 30.0452 28.6511 30.7095C27.3736 31.3737 26.0451 31.6803 24.6143 31.6803C22.6215 31.6803 20.9352 31.0671 19.5045 29.7897C18.0737 28.5122 17.205 27.0304 16.9495 25.293H36.1114ZM24.3588 15.0733C26.2495 15.0733 27.7824 15.6354 29.0599 16.7085C30.2862 17.8327 31.0527 19.2123 31.3593 20.9497H17.1539C17.6138 19.2123 18.4314 17.8327 19.7089 16.7085C20.9352 15.6354 22.5193 15.0733 24.3588 15.0733Z" fill="#323264"/>
<path d="M59.9429 34.2863C59.9429 36.5347 59.2786 38.3742 57.899 39.805C56.5704 41.1846 54.8842 41.9 52.7891 41.9C51.8694 41.9 50.9496 41.7467 50.0809 41.4912C49.2122 41.2357 48.548 40.9291 47.9859 40.5714C47.4238 40.2137 46.9128 39.856 46.4018 39.3962C45.9419 38.9363 45.6354 38.6297 45.4821 38.4764C45.3288 38.3231 45.2266 38.1698 45.1244 38.0676L41.803 41.389L42.2118 41.9C42.4673 42.2577 42.9271 42.7176 43.5403 43.2285C44.1535 43.6884 44.8689 44.1994 45.6865 44.7104C46.504 45.1703 47.526 45.5791 48.8035 45.9368C50.0809 46.2944 51.4095 46.4988 52.7891 46.4988C56.2638 46.4988 59.1253 45.3236 61.5269 42.9731C63.8775 40.5714 65.0527 37.7099 65.0527 34.2352V11.241H59.9429V13.7959L59.0742 13.0294C58.5121 12.5184 57.6435 12.0074 56.4171 11.4965C55.1907 10.9855 53.8622 10.73 52.5336 10.73C49.4166 10.73 46.7595 11.9052 44.4601 14.3069C42.1607 16.7085 41.0365 19.57 41.0365 22.9936C41.0365 26.4172 42.1607 29.2787 44.4601 31.6803C46.7595 34.0819 49.4166 35.2572 52.5336 35.2572C53.4023 35.2572 54.2199 35.155 55.0885 34.9506C55.9061 34.6951 56.5704 34.4396 57.1325 34.1841C57.6946 33.9286 58.2055 33.622 58.6654 33.2644C59.1253 32.9067 59.483 32.6512 59.5852 32.549L59.9429 32.1913V34.2863ZM46.1463 22.9936C46.1463 20.8475 46.8106 19.059 48.1903 17.5772C49.5699 16.0953 51.2051 15.3288 53.0446 15.3288C54.8842 15.3288 56.5193 16.0953 57.899 17.5772C59.2275 19.059 59.9429 20.8475 59.9429 22.9936C59.9429 25.1397 59.2275 26.9282 57.899 28.41C56.5193 29.8919 54.8842 30.6583 53.0446 30.6583C51.2051 30.6583 49.5699 29.8919 48.1903 28.41C46.8106 26.9282 46.1463 25.1397 46.1463 22.9936Z" fill="#323264"/>
<path d="M91.7241 35.7682V19.9277C91.7241 17.3217 90.7532 15.1244 88.8626 13.3871C86.9719 11.5987 84.5192 10.73 81.5044 10.73C80.3291 10.73 79.1539 10.8833 78.0297 11.1899C76.9055 11.5476 75.9858 11.9052 75.3215 12.314C74.6572 12.7228 73.9929 13.1827 73.3798 13.7448C72.7666 14.2558 72.4089 14.6135 72.2045 14.8179C72.0512 15.0222 71.8979 15.1755 71.7957 15.3288L75.1171 18.6502L75.7814 17.7816C76.1902 17.2195 76.9055 16.7085 77.9786 16.1464C79.0517 15.5843 80.2269 15.3288 81.5044 15.3288C82.9863 15.3288 84.2126 15.7887 85.1835 16.6574C86.1544 17.5261 86.6142 18.6502 86.6142 19.9277L77.672 21.4606C75.4748 21.8183 73.6863 22.687 72.46 24.0667C71.1825 25.4463 70.5182 27.1326 70.5182 29.1254C70.5182 31.016 71.3358 32.6512 72.971 34.0819C74.6572 35.5638 76.7012 36.2792 79.205 36.2792C80.0736 36.2792 80.8912 36.177 81.7088 35.9215C82.5775 35.7171 83.2417 35.4616 83.8038 35.2061C84.3659 34.9506 84.8769 34.644 85.3368 34.2863C85.7967 33.9287 86.1033 33.6732 86.3076 33.571C86.4609 33.4177 86.5631 33.2644 86.6142 33.2133V35.7682H91.7241ZM79.9714 31.6803C78.6429 31.6803 77.5698 31.3737 76.8034 30.7606C75.9858 30.1474 75.6281 29.432 75.6281 28.6144C75.6281 27.7457 75.8836 26.9793 76.4457 26.4172C77.0077 25.8551 77.7742 25.4463 78.694 25.293L86.6142 24.0156V24.5265C86.6142 26.826 86.0522 28.5633 84.8769 29.8408C83.7016 31.0671 82.0665 31.6803 79.9714 31.6803Z" fill="#323264"/>
<path d="M103 0H97.89V35.7689H103V0Z" fill="#323264"/>
</svg>
